<?xml version="1.0" encoding="utf-8"?>
<!-- Generator: Adobe Illustrator 16.0.0, SVG Export Plug-In . SVG Version: 6.00 Build 0)  -->
<!DOCTYPE svg PUBLIC "-//W3C//DTD SVG 1.1//EN" "http://www.w3.org/Graphics/SVG/1.1/DTD/svg11.dtd">
<svg version="1.1" xmlns="http://www.w3.org/2000/svg" xmlns:xlink="http://www.w3.org/1999/xlink" x="0px" y="0px" width="1254px"
	 height="440px" viewBox="0 0 1254 440" enable-background="new 0 0 1254 440" xml:space="preserve">
<g id="Layer_1">
	<rect x="-99.523" y="-422.254" display="none" fill="#0D0D0D" width="1469.928" height="1453.487"/>
	<defs>
		
			<filter id="Adobe_OpacityMaskFilter" filterUnits="userSpaceOnUse" x="-221.773" y="-451.464" width="1639.547" height="1532.208">
			<feColorMatrix  type="matrix" values="1 0 0 0 0  0 1 0 0 0  0 0 1 0 0  0 0 0 1 0"/>
		</filter>
	</defs>
	<mask maskUnits="userSpaceOnUse" x="-221.773" y="-451.464" width="1639.547" height="1532.208" id="SVGID_1_">
		<g filter="url(#Adobe_OpacityMaskFilter)">
			<g>
				<g>
					<g>
						<path fill="#FFFFFF" d="M67.836,401.123c-32.166,0-50.614-23.011-50.614-63.133c0-19.299,4.125-48.982,15.701-74.414
							c14.037-30.834,35.53-47.132,62.158-47.132c26.127,0,43.56,15.681,49.087,44.153l0.442,2.277l-45.903,21.953v-7.706
							c0-4.633-0.808-15.408-8.291-15.408c-2.561,0-4.975,1.203-7.382,3.677c-13.257,13.631-19.033,58.729-18.58,74.97
							c0.277,12.808,4.528,15.492,8.045,15.492c8.8,0,15.049-10.651,19.043-20.998H78.148l8.596-41.834h58.521l-0.321,3.291
							c-1.44,14.77-5.899,43.158-19.58,67.333C111.292,388.514,91.937,401.123,67.836,401.123z"/>
						<path fill="#FFFFFF" d="M81.827,331.855l7.363-35.834h52.769c-3.926,40.252-22.579,102.102-74.123,102.102
							c-32.152,0-47.614-24.053-47.614-60.133c0-37.06,16.198-118.546,74.859-118.546c26.262,0,41.234,16.444,46.143,41.725
							l-39.516,18.898v-2.945c0-10.799-3.683-18.408-11.291-18.408c-21.842,0-29.453,64.059-28.961,81.731
							c0.244,11.291,3.681,18.408,11.044,18.408c10.556,0,18.162-11.781,23.317-26.998H81.827z"/>
						<polygon fill="#FFFFFF" points="213.036,397.688 214.755,378.545 189.815,378.545 183.925,397.688 133.264,397.688 
							207.942,219.88 261.051,219.88 260.541,397.688 						"/>
						<path fill="#FFFFFF" d="M216.317,394.688l1.719-19.143H187.6l-5.891,19.143h-43.932l72.158-171.807h48.106l-0.492,171.807
							H216.317z"/>
						<path fill="#FFFFFF" d="M294.363,397.688l10.221-49.792l-12.55-128.015h50.934l0.534,34.616
							c0.072,6.604-0.022,12.722-0.192,18.081c2.027-5.636,4.51-12.099,7.443-18.968l14.53-33.729h54.289l-68.363,131.156
							l-9.74,46.651H294.363z"/>
						<path fill="#FFFFFF" d="M339.029,394.688h-40.988l9.572-46.633L295.342,222.88h44.671l0.488,31.662
							c0.247,22.826-1.472,39.516-1.472,39.516h0.491c0,0,4.662-17.427,13.99-39.271l13.745-31.907h47.368l-66.269,127.137
							L339.029,394.688z"/>
						<polygon fill="#FFFFFF" points="418.472,281.495 441.758,209.23 485.173,209.23 456.534,281.495 						"/>
						<path fill="#FFFFFF" d="M443.943,212.23h36.813l-26.261,66.264h-31.905L443.943,212.23z"/>
						<path fill="#FFFFFF" d="M523.831,401.123c-28.477,0-52.994-15.809-61.008-39.338l-0.785-2.305l40.599-24.081l1.362,3.104
							c3.473,7.913,11.217,16.368,22.533,16.368c8.835,0,11.97-5.259,11.97-9.762c0-7.203-8.869-13.264-19.138-20.281
							c-16.187-11.062-36.332-24.828-36.332-52.124c0-31.548,25.899-56.26,58.962-56.26c26.149,0,46.767,15.298,56.567,41.972
							l0.907,2.47l-40.477,21.229l-1.167-3.24c-3.926-10.905-10.502-17.16-18.041-17.16c-7.9,0-10.008,5.521-10.008,8.782
							c0,6.473,7.801,11.373,17.676,17.576c15.95,10.019,37.793,23.74,37.793,54.828
							C585.246,376.637,559.417,401.123,523.831,401.123z"/>
						<path fill="#FFFFFF" d="M501.252,339.709c4.417,10.062,13.498,18.162,25.28,18.162c10.308,0,14.97-6.381,14.97-12.762
							c0-21.354-55.47-28.717-55.47-72.405c0-28.471,23.317-53.26,55.962-53.26c26.262,0,44.914,15.954,53.751,40.006
							l-35.098,18.407c-4.418-12.271-12.026-19.144-20.863-19.144c-9.082,0-13.008,6.382-13.008,11.782
							c0,20.615,55.47,23.807,55.47,72.404c0,32.398-24.545,55.223-58.415,55.223c-27.488,0-50.562-14.971-58.168-37.305
							L501.252,339.709z"/>
						<path fill="#FFFFFF" d="M903.789,397.688l-5.227-45.227c-0.515-6.561-1.033-13.916-1.409-19.409l-4.558,7.076l-11.918,57.56
							H832.32l37.593-177.807h48.358l-10.351,48.299c-0.251,1.129-0.519,2.296-0.794,3.473c0.565-0.906,1.123-1.805,1.659-2.68
							l27.833-49.091h55.79l-56.276,76.413l16.564,101.395H903.789z"/>
						<path fill="#FFFFFF" d="M906.462,394.688l-4.908-42.461c-0.982-12.518-1.966-27.734-1.966-27.734h-0.489l-9.327,14.48
							l-11.536,55.715h-42.215l36.324-171.807h42.216l-9.573,44.67c-1.963,8.835-4.907,19.881-4.907,19.881h0.491
							c0,0,6.136-9.327,10.799-16.935l26.997-47.616h48.106l-53.505,72.65l16.198,99.157H906.462z"/>
						<polygon fill="#FFFFFF" points="1034.233,397.688 1035.952,378.545 1011.013,378.545 1005.122,397.688 954.461,397.688 
							1029.138,219.88 1082.247,219.88 1081.738,397.688 						"/>
						<path fill="#FFFFFF" d="M1037.515,394.688l1.719-19.143h-30.437l-5.891,19.143h-43.932l72.157-171.807h48.106l-0.491,171.807
							H1037.515z"/>
						<path fill="#FFFFFF" d="M1115.562,397.688l10.221-49.792l-12.549-128.015h50.933l0.535,34.616
							c0.07,6.606-0.023,12.722-0.193,18.081c2.026-5.636,4.51-12.099,7.443-18.968l14.529-33.729h54.291l-68.365,131.156
							l-9.739,46.651H1115.562z"/>
						<path fill="#FFFFFF" d="M1160.229,394.688h-40.988l9.572-46.633l-12.271-125.174h44.67l0.489,31.662
							c0.245,22.826-1.473,39.516-1.473,39.516h0.491c0,0,4.662-17.427,13.99-39.271l13.745-31.907h47.369l-66.27,127.137
							L1160.229,394.688z"/>
					</g>
				</g>
				<g>
					<path fill="#808080" d="M857.518,107.088l-36.27,172.309l0.15,0.587c0.203,0.81,0.383,1.611,0.571,2.419l52.084-127.43
						C881.186,137.055,873.789,116.612,857.518,107.088z"/>
					<path fill="#999999" d="M814.227,277.926c0.716,0.166,1.437,0.259,2.161,0.286l36.266-172.283
						c0.079-0.39,0.144-0.775,0.206-1.166c0.154-0.845,0.283-1.697,0.373-2.548c0.098-0.874,0.153-1.748,0.191-2.622
						c0.727-18.313-11.682-35.278-29.961-39.463c-0.985-0.221-1.971-0.394-2.959-0.54c0.002,0.425,0.004,0.854-0.008,1.282
						l-1.426,40.567l-0.106,2.983l-0.108,2.961l-5.973,170.146C813.318,277.683,813.766,277.825,814.227,277.926z"/>
					<g>
						<path fill="#A6A6A6" d="M745.6,197.496l-0.43,2.258c-0.283,1.495-0.293,2.984-0.025,4.426c0.418,2.299,1.473,4.359,2.972,6
							c0.642,0.702,1.376,1.335,2.166,1.868c0.714,0.479,1.487,0.881,2.308,1.202c0.53,0.204,1.078,0.374,1.643,0.504
							c1.504,0.347,3.043,0.384,4.568,0.119c0.059-0.011,0.107-0.027,0.162-0.034c1.15-0.221,2.238-0.611,3.247-1.148
							c1.556-0.831,2.921-2.007,3.972-3.489l0.795-1.112l0.533-0.745l1.965,1.198c4.504,2.753,8.879,5.859,13.004,9.23l1.783,1.459
							l-1.25,1.91c-1.676,2.566-2.295,5.645-1.748,8.671c0.874,4.754,4.438,8.517,9.104,9.581c1.496,0.345,3.035,0.384,4.559,0.119
							c1.435-0.256,2.805-0.782,4.066-1.56l1.932-1.201l1.373,1.865c2.364,3.211,4.573,6.548,6.578,9.95l4.861-138.36l0.114-3.36
							l0.117-3.308l1.547-43.904c0.013-0.485,0.013-0.963,0.013-1.444c-0.008-0.847-0.044-1.69-0.095-2.531
							c-0.06-0.849-0.145-1.689-0.255-2.525c-2.133-15.817-13.783-29.049-29.598-32.668c-2.182-0.497-4.428-0.803-6.684-0.909
							c-10.102-0.472-19.732,3.072-27.109,9.978c-7.379,6.904-11.622,16.343-11.951,26.576L738.4,195.442
							c1.685,0.428,3.359,0.88,5.008,1.386L745.6,197.496z"/>
						<path fill="#A6A6A6" d="M805.139,267.375c0.412,2.236,1.43,4.249,2.87,5.864l0.58-16.585
							C805.751,259.351,804.409,263.371,805.139,267.375z"/>
					</g>
					<path fill="#FFFFFF" d="M819.068,295.12c-0.121-0.863-0.244-1.721-0.377-2.576c-0.104-0.675-0.217-1.342-0.334-2.007
						c-0.05-0.291-0.094-0.582-0.145-0.872c-0.125-0.66-0.256-1.329-0.396-2c-0.104-0.514-0.213-1.031-0.326-1.551
						c-0.1-0.449-0.197-0.899-0.299-1.35c-0.038-0.164-0.073-0.328-0.108-0.494c-0.459,0.006-0.917-0.016-1.374-0.047
						c-0.121-0.009-0.245-0.018-0.37-0.03c-0.718-0.064-1.435-0.177-2.149-0.341c-0.165-0.036-0.327-0.088-0.493-0.13
						c-0.845-0.222-1.668-0.507-2.462-0.853c-0.857-0.369-1.674-0.808-2.445-1.306c-0.255-0.165-0.503-0.335-0.746-0.515
						c-3.496-2.535-5.983-6.367-6.803-10.82c-1.068-5.867,0.97-11.756,5.252-15.597c-1.799-3.166-3.779-6.274-5.913-9.286
						c-1.19,0.528-2.442,0.905-3.737,1.138c-2.182,0.381-4.368,0.323-6.512-0.169c-6.637-1.517-11.721-6.874-12.964-13.65
						c-0.646-3.544-0.173-7.135,1.337-10.323c-2.879-2.264-5.871-4.395-8.944-6.353c-1.726,1.825-3.831,3.203-6.17,4.071
						c-0.927,0.343-1.885,0.612-2.876,0.789c-0.074,0.011-0.146,0.015-0.229,0.026c-0.939,0.154-1.885,0.22-2.83,0.209
						c-1.16-0.017-2.314-0.143-3.452-0.407c-0.562-0.127-1.108-0.292-1.646-0.472c-0.812-0.275-1.593-0.609-2.344-0.998
						c-0.795-0.409-1.547-0.879-2.262-1.406c-3.447-2.54-5.902-6.347-6.707-10.764c-0.241-1.305-0.326-2.639-0.25-3.975
						c-0.552-0.158-1.094-0.3-1.643-0.442c-0.826-0.224-1.654-0.434-2.482-0.633c-0.83-0.199-1.657-0.388-2.488-0.565
						c-1.328-0.289-2.658-0.553-3.992-0.791c-2.057,5.422-6.771,9.408-12.538,10.413c-2.173,0.38-4.364,0.32-6.507-0.172
						c-5.732-1.31-10.346-5.536-12.271-11.053c-1.852,0.222-3.623,0.486-5.36,0.792c-1.75,0.31-3.54,0.668-5.321,1.073
						c0.19,8.147-5.527,15.457-13.627,16.875c-2.174,0.376-4.361,0.319-6.504-0.169c-3.498-0.801-6.605-2.674-8.957-5.365
						c-3.11,1.786-6.154,3.75-9.088,5.862c0.534,1.219,0.929,2.496,1.17,3.811c0.902,4.943-0.426,9.751-3.236,13.397l32.906,34.657
						c6.547-5.816,14.58-9.711,23.419-11.254c6.336-1.107,12.724-0.941,18.979,0.489c19.346,4.426,34.175,20.046,37.781,39.79
						c2.377,12.991-0.375,26.072-7.734,36.833c-7.363,10.76-18.461,17.922-31.25,20.148c-6.336,1.105-12.723,0.941-18.977-0.49
						c-19.35-4.428-34.186-20.049-37.791-39.801c-2.378-12.982,0.373-26.065,7.739-36.824c1.31-1.919,2.749-3.715,4.282-5.394
						l-32.959-34.714c-1.898,1.326-4.1,2.283-6.53,2.707c-3.478,0.601-7.063,0.062-10.21-1.504c-2.199,2.89-4.26,5.897-6.148,8.983
						c2.549,2.48,4.268,5.687,4.92,9.236c1.684,9.198-4.318,17.962-13.373,19.541c-1.289,0.227-2.602,0.293-3.915,0.201
						c-0.931,3.516-1.686,7.104-2.257,10.712c5.376,2.157,9.368,6.993,10.445,12.853c1.504,8.233-3.252,16.226-10.822,18.867
						c0.241,1.854,0.529,3.678,0.855,5.443c0.316,1.764,0.688,3.545,1.127,5.41c1.307-0.016,2.61,0.123,3.897,0.412
						c6.62,1.52,11.702,6.865,12.94,13.627c1.07,5.863-0.969,11.75-5.248,15.592c1.815,3.189,3.793,6.301,5.912,9.285
						c1.203-0.527,2.468-0.908,3.753-1.133c2.171-0.377,4.364-0.32,6.509,0.168c6.626,1.518,11.713,6.871,12.948,13.643
						c0.651,3.553,0.173,7.145-1.338,10.332c2.867,2.256,5.864,4.383,8.948,6.35c2.41-2.549,5.553-4.248,9.045-4.859
						c2.178-0.379,4.364-0.324,6.511,0.166c6.633,1.52,11.716,6.873,12.954,13.65c0.244,1.318,0.33,2.646,0.256,3.971
						c3.49,0.988,7.03,1.803,10.605,2.434c2.053-5.416,6.77-9.406,12.542-10.42c2.173-0.375,4.358-0.316,6.502,0.174
						c5.731,1.309,10.348,5.537,12.269,11.057c1.859-0.225,3.626-0.484,5.361-0.795c1.726-0.299,3.482-0.65,5.319-1.07
						c-0.195-8.146,5.528-15.459,13.631-16.873c2.176-0.379,4.358-0.322,6.503,0.166c3.499,0.801,6.607,2.676,8.963,5.365
						c3.11-1.789,6.154-3.752,9.087-5.863c-0.544-1.23-0.938-2.506-1.179-3.816c-1.674-9.193,4.324-17.963,13.372-19.539
						c3.483-0.602,7.071-0.062,10.213,1.502c2.192-2.881,4.249-5.893,6.149-8.984c-2.549-2.475-4.272-5.684-4.917-9.234
						c-1.683-9.193,4.313-17.959,13.364-19.535c1.293-0.227,2.605-0.295,3.922-0.203c0.932-3.535,1.688-7.121,2.256-10.713
						c-5.379-2.16-9.375-6.992-10.448-12.851C806.737,305.76,811.488,297.76,819.068,295.12z M696.028,243.014
						c-1.576,0.395-3.159-0.509-3.56-2.111c-0.428-1.597,0.563-3.172,2.139-3.565c1.575-0.395,3.165,0.536,3.559,2.111
						C698.567,241.052,697.63,242.614,696.028,243.014z M721.139,245.733l-4.84-0.218l-3.28-8.052l-0.057-0.003l-0.354,7.889
						l-4.699-0.212l0.936-20.811l6.321,0.284l0.028,0.001c0.896,0.041,1.731,0.246,2.509,0.618c0.777,0.371,1.447,0.863,2.008,1.478
						c0.562,0.613,0.991,1.319,1.292,2.117c0.301,0.8,0.432,1.646,0.391,2.54c-0.057,1.27-0.435,2.397-1.133,3.384
						c-0.699,0.986-1.592,1.727-2.679,2.219L721.139,245.733z M642.565,286.778c0.475-1.554,2.091-2.437,3.645-1.962
						c1.58,0.481,2.436,2.091,1.953,3.671c-0.475,1.554-2.064,2.444-3.644,1.962C642.931,289.994,642.091,288.332,642.565,286.778z
						 M628.764,314.964l0.07-12.768l4.704,0.025l-0.045,8.063l3.36,0.02l0.031-5.936l4.705,0.025l-0.033,5.936l3.36,0.02
						l0.044-8.065l4.705,0.025l-0.071,12.768L628.764,314.964z M636.55,344.236l-1.428-3.951c-0.477-1.316-0.689-2.664-0.642-4.041
						c0.048-1.375,0.365-2.707,0.953-3.99c0.605-1.291,1.411-2.396,2.419-3.316c1.007-0.92,2.169-1.617,3.486-2.094
						c1.315-0.477,2.655-0.682,4.018-0.619s2.689,0.396,3.98,1.002c1.178,0.566,2.206,1.312,3.086,2.234
						c0.879,0.924,1.572,1.977,2.081,3.162l0.209,0.58l1.428,3.951L636.55,344.236z M647.437,360.844l-2.821-3.764l16.674-12.49
						l2.82,3.766L647.437,360.844z M667.812,379.207l-5.046-3.818l-0.022-0.018c-0.714-0.541-1.285-1.184-1.716-1.932
						c-0.43-0.746-0.702-1.531-0.814-2.354c-0.114-0.826-0.069-1.65,0.137-2.479c0.205-0.828,0.578-1.598,1.118-2.312
						c0.767-1.014,1.718-1.727,2.852-2.145c1.137-0.416,2.291-0.52,3.466-0.309l2.04-9.236l3.861,2.922l-1.862,8.494l0.045,0.033
						l4.766-6.295l3.75,2.838L667.812,379.207z M693.398,389.811l-6.025-1.936l-0.027-0.008c-0.853-0.273-1.602-0.689-2.246-1.25
						c-0.643-0.559-1.154-1.209-1.535-1.949c-0.381-0.738-0.61-1.533-0.69-2.383c-0.081-0.85,0.017-1.699,0.291-2.553
						c0.273-0.854,0.689-1.602,1.25-2.246c0.559-0.643,1.209-1.156,1.948-1.535c0.74-0.381,1.534-0.611,2.383-0.691
						c0.851-0.08,1.7,0.018,2.554,0.291l0.027,0.01l1.546,0.496l2.413-7.52l4.479,1.438L693.398,389.811z M746.578,384.471
						l-2.948-7.506l-5.186,2.039l2.947,7.504l-4.378,1.721l-7.617-19.389l4.379-1.721l2.948,7.506l5.187-2.037l-2.949-7.506
						l4.379-1.721l7.616,19.389L746.578,384.471z M733.813,249.152l-4.455-1.509l6.684-19.731l4.455,1.511L733.813,249.152z
						 M757.369,255.308c-1.16,0.719-2.443,1.192-3.85,1.424c-1.292,0.197-2.562,0.164-3.809-0.1s-2.415-0.741-3.505-1.433
						l-0.499-0.358l-3.412-2.451l12.157-16.918l3.411,2.451c1.137,0.817,2.074,1.807,2.813,2.97c0.738,1.164,1.229,2.441,1.47,3.832
						c0.23,1.407,0.19,2.774-0.12,4.103c-0.312,1.328-0.875,2.562-1.692,3.698C759.518,253.663,758.529,254.59,757.369,255.308z
						 M760.181,266.876l17.232-11.706l7.174,10.562l-3.891,2.643l-4.531-6.67l-2.779,1.888l3.335,4.91l-3.891,2.644l-3.336-4.909
						l-2.778,1.888l4.53,6.67l-3.891,2.643L760.181,266.876z M764.218,373.943l-3.18-3.467l3.486-3.199l-10.901-11.885l3.468-3.18
						l10.901,11.885l3.486-3.199l3.18,3.467L764.218,373.943z M783.27,352.365l-17.843-10.752l2.428-4.029l17.843,10.75
						L783.27,352.365z M796.199,313.468l-11.615,0.855l10.698,4.583l-0.795,4.723l-11.611,0.826l10.7,4.586l-0.782,4.639
						l-19.701-8.461l0.797-4.721l11.611-0.826l-10.699-4.583l0.795-4.723l21.386-1.536L796.199,313.468z"/>
				</g>
			</g>
		</g>
	</mask>
	<g mask="url(#SVGID_1_)">
		<polygon fill="#732A83" points="-221.773,744.436 78.536,-451.464 1417.773,-115.158 1117.476,1080.744 		"/>
		<polygon fill="#3F5FAC" points="-221.773,744.436 78.536,-451.464 1160.533,-179.767 860.23,1016.121 		"/>
		<polygon fill="#0C8140" points="-221.773,744.436 78.536,-451.464 971.356,-227.266 671.057,968.623 		"/>
		<polygon fill="#FDEC0A" points="-221.773,744.436 78.536,-451.464 748.147,-283.303 447.847,912.586 		"/>
		<polygon fill="#F78C1F" points="-221.773,744.436 78.536,-451.464 557.197,-331.257 256.904,864.641 		"/>
		<polygon fill="#E31E26" points="-221.773,744.436 78.536,-451.464 323.862,-389.87 23.552,806.037 		"/>
	</g>
</g>
<g id="Center" display="none">
	<circle display="inline" fill="#ED1C24" cx="631" cy="312.641" r="18"/>
</g>
</svg>
